<svg width="120" height="33" viewBox="0 0 120 33" fill="none" xmlns="http://www.w3.org/2000/svg">
<mask id="mask0_226_2176" style="mask-type:alpha" maskUnits="userSpaceOnUse" x="0" y="0" width="120" height="33">
<path d="M119.39 20.4984H37.1205C36.9567 20.4984 36.7996 20.4341 36.6838 20.3194C36.568 20.2048 36.5029 20.0494 36.5029 19.8873V0.647787C36.5029 0.485695 36.4378 0.330243 36.322 0.215627C36.2062 0.101011 36.0491 0.0366211 35.8853 0.0366211H32.5698C32.406 0.0366211 32.2489 0.101011 32.1331 0.215627C32.0172 0.330243 31.9521 0.485695 31.9521 0.647787V24.4197C31.9521 24.5818 32.0172 24.7372 32.1331 24.8518C32.2489 24.9665 32.406 25.0308 32.5698 25.0308H95.8479C96.0117 25.0308 96.1688 25.0952 96.2847 25.2099C96.4005 25.3245 96.4656 25.4799 96.4656 25.642V27.2946C96.4656 27.2946 96.4656 28.8054 95.1932 29.6146C95.1198 29.6604 95.057 29.7211 95.0089 29.7926C94.9609 29.8642 94.9287 29.945 94.9144 30.0297C94.9002 30.1145 94.9043 30.2012 94.9263 30.2843C94.9484 30.3674 94.988 30.4449 95.0425 30.5118C95.5786 31.167 96.426 32.201 96.8979 32.7731C96.9942 32.8914 97.1318 32.9698 97.2836 32.9929C97.4353 33.016 97.5904 32.982 97.7181 32.8978C98.7434 32.2133 101.066 30.3724 101.066 27.6906V25.6298C101.066 25.4677 101.131 25.3122 101.247 25.1976C101.362 25.083 101.52 25.0186 101.683 25.0186H110.597C110.761 25.0186 110.918 25.083 111.034 25.1976C111.15 25.3122 111.215 25.4677 111.215 25.6298V30.3773C111.215 30.5394 111.28 30.6949 111.396 30.8095C111.511 30.9241 111.669 30.9885 111.832 30.9885H115.118C115.282 30.9885 115.439 30.9241 115.555 30.8095C115.671 30.6949 115.736 30.5394 115.736 30.3773V25.6347C115.736 25.4726 115.801 25.3171 115.917 25.2025C116.033 25.0879 116.19 25.0235 116.353 25.0235H119.382C119.546 25.0235 119.703 24.9591 119.819 24.8445C119.935 24.7299 120 24.5744 120 24.4123V21.1096C120 20.9488 119.936 20.7944 119.822 20.68C119.707 20.5656 119.552 20.5004 119.39 20.4984Z" fill="#221E1F"/>
<path d="M28.9775 0H25.4224C25.2913 0 25.1656 0.051512 25.073 0.143205C24.9803 0.234897 24.9283 0.359259 24.9283 0.488932V9.77865C24.9283 9.90832 24.8762 10.0327 24.7835 10.1244C24.6909 10.2161 24.5652 10.2676 24.4341 10.2676H23.6065C23.5211 10.2662 23.4376 10.243 23.3639 10.2001C23.2903 10.1573 23.2292 10.0963 23.1865 10.0231C23.5896 11.6745 23.6251 13.3929 23.2903 15.0591C23.3338 14.9845 23.3965 14.9226 23.472 14.8797C23.5475 14.8367 23.6331 14.8143 23.7202 14.8147H24.4144C24.5454 14.8147 24.6711 14.8662 24.7638 14.9579C24.8564 15.0495 24.9085 15.1739 24.9085 15.3036V24.5517C24.9085 24.6814 24.9606 24.8058 25.0532 24.8975C25.1459 24.9892 25.2716 25.0407 25.4026 25.0407H28.9775C29.1085 25.0407 29.2342 24.9892 29.3269 24.8975C29.4195 24.8058 29.4716 24.6814 29.4716 24.5517V0.488932C29.4716 0.359259 29.4195 0.234897 29.3269 0.143205C29.2342 0.051512 29.1085 0 28.9775 0Z" fill="#221E1F"/>
<path d="M23.1866 10.0282C22.502 7.24246 20.8023 4.80487 18.4134 3.18281C16.0245 1.56075 13.1146 0.868406 10.2416 1.23853C7.3686 1.60865 4.7348 3.01519 2.84525 5.18844C0.955695 7.36168 -0.0566118 10.1487 0.00244568 13.0149C0.0615032 15.8812 1.18777 18.625 3.16527 20.7203C5.14277 22.8155 7.83232 24.1146 10.7182 24.3686C13.604 24.6225 16.483 23.8134 18.8031 22.0963C21.1232 20.3793 22.7211 17.8751 23.2904 15.0642C23.6252 13.3979 23.5897 11.6795 23.1866 10.0282ZM4.63774 12.2112C4.74659 10.8671 5.24193 9.58177 6.06524 8.5072C6.88856 7.43263 8.00546 6.61365 9.28403 6.147C10.5626 5.68035 11.9494 5.58552 13.2807 5.87371C14.612 6.1619 15.8321 6.82108 16.797 7.77338C17.7619 8.72568 18.4311 9.93133 18.7258 11.2479C19.0205 12.5645 18.9282 13.937 18.4599 15.2034C17.9916 16.4698 17.1668 17.5771 16.083 18.3945C14.9991 19.212 13.7015 19.7054 12.3434 19.8166C11.3125 19.8968 10.2764 19.7553 9.30602 19.4017C8.33569 19.0481 7.45419 18.4909 6.72208 17.7684C5.98997 17.0458 5.42461 16.175 5.06481 15.2157C4.70502 14.2564 4.55933 13.2315 4.63774 12.2112Z" fill="#221E1F"/>
<path d="M66.7226 17.8973H89.217C89.4324 17.8918 89.6446 17.8435 89.8408 17.7553C90.0371 17.6672 90.2135 17.5409 90.3595 17.3841C90.5056 17.2272 90.6183 17.043 90.6911 16.8423C90.7639 16.6415 90.7953 16.4283 90.7833 16.2154V0.647792C90.7833 0.4857 90.7182 0.330248 90.6024 0.215632C90.4866 0.101016 90.3295 0.036626 90.1656 0.036626H86.8576C86.6938 0.036626 86.5367 0.101016 86.4208 0.215632C86.305 0.330248 86.2399 0.4857 86.2399 0.647792V12.7415C86.2403 12.8219 86.2245 12.9015 86.1936 12.9758C86.1627 13.0501 86.1172 13.1176 86.0598 13.1744C86.0024 13.2312 85.9341 13.2762 85.8591 13.3068C85.784 13.3374 85.7035 13.353 85.6223 13.3527H71.261C71.1798 13.353 71.0994 13.3374 71.0243 13.3068C70.9492 13.2762 70.881 13.2312 70.8236 13.1744C70.7661 13.1176 70.7207 13.0501 70.6897 12.9758C70.6588 12.9015 70.6431 12.8219 70.6434 12.7415V11.7979C70.6434 11.6358 70.7084 11.4804 70.8243 11.3657C70.9401 11.2511 71.0972 11.1867 71.261 11.1867H80.2069C80.2881 11.1871 80.3685 11.1715 80.4436 11.1409C80.5187 11.1103 80.5869 11.0653 80.6443 11.0084C80.7018 10.9516 80.7472 10.8841 80.7782 10.8098C80.8091 10.7355 80.8248 10.6559 80.8245 10.5756V0.647792C80.8248 0.567442 80.8091 0.487822 80.7782 0.413526C80.7472 0.33923 80.7018 0.271728 80.6443 0.214912C80.5869 0.158095 80.5187 0.113089 80.4436 0.0824896C80.3685 0.0518901 80.2881 0.0363027 80.2069 0.036626H66.7226C66.5588 0.036626 66.4017 0.101016 66.2859 0.215632C66.1701 0.330248 66.105 0.4857 66.105 0.647792V3.92364C66.105 4.08573 66.1701 4.24118 66.2859 4.3558C66.4017 4.47042 66.5588 4.53481 66.7226 4.53481H75.6462C75.8101 4.53481 75.9671 4.5992 76.083 4.71381C76.1988 4.82843 76.2639 4.98388 76.2639 5.14597V6.02605C76.2639 6.18814 76.1988 6.34359 76.083 6.45821C75.9671 6.57283 75.8101 6.63722 75.6462 6.63722H66.7226C66.5588 6.63722 66.4017 6.70161 66.2859 6.81622C66.1701 6.93084 66.105 7.08629 66.105 7.24838V17.2886C66.1056 17.4503 66.171 17.6051 66.2868 17.7192C66.4025 17.8333 66.5592 17.8973 66.7226 17.8973Z" fill="#221E1F"/>
<path d="M41.3872 17.9291H61.2306C61.3944 17.9291 61.5515 17.8647 61.6674 17.7501C61.7832 17.6355 61.8483 17.48 61.8483 17.3179V0.647787C61.8483 0.485696 61.7832 0.330243 61.6674 0.215627C61.5515 0.101011 61.3944 0.0366211 61.2306 0.0366211H57.9053C57.7415 0.0366211 57.5844 0.101011 57.4685 0.215627C57.3527 0.330243 57.2876 0.485696 57.2876 0.647787V4.47368C57.2876 4.55394 57.2717 4.63342 57.2406 4.70757C57.2096 4.78172 57.1641 4.84909 57.1067 4.90584C57.0494 4.9626 56.9813 5.00761 56.9064 5.03833C56.8314 5.06904 56.7511 5.08485 56.67 5.08485H45.9701C45.8889 5.08485 45.8086 5.06904 45.7337 5.03833C45.6588 5.00761 45.5907 4.9626 45.5333 4.90584C45.476 4.84909 45.4305 4.78172 45.3994 4.70757C45.3684 4.63342 45.3524 4.55394 45.3524 4.47368V0.647787C45.3524 0.485696 45.2873 0.330243 45.1715 0.215627C45.0557 0.101011 44.8986 0.0366211 44.7348 0.0366211H41.3872C41.2234 0.0366211 41.0663 0.101011 40.9505 0.215627C40.8346 0.330243 40.7696 0.485696 40.7696 0.647787V17.313C40.7689 17.3937 40.7844 17.4737 40.8151 17.5484C40.8459 17.6232 40.8913 17.6911 40.9487 17.7484C41.0061 17.8056 41.0744 17.8511 41.1497 17.8821C41.2249 17.9131 41.3057 17.9291 41.3872 17.9291ZM45.3524 10.248C45.3524 10.0859 45.4175 9.93043 45.5333 9.81582C45.6492 9.7012 45.8062 9.63681 45.9701 9.63681H56.6502C56.814 9.63681 56.9711 9.7012 57.087 9.81582C57.2028 9.93043 57.2679 10.0859 57.2679 10.248V12.7855C57.2679 12.9476 57.2028 13.1031 57.087 13.2177C56.9711 13.3323 56.814 13.3967 56.6502 13.3967H45.9701C45.8062 13.3967 45.6492 13.3323 45.5333 13.2177C45.4175 13.1031 45.3524 12.9476 45.3524 12.7855V10.248Z" fill="#221E1F"/>
<path d="M95.9788 17.8974H115.78C115.944 17.8974 116.101 17.833 116.217 17.7184C116.333 17.6037 116.398 17.4483 116.398 17.2862V0.647831C116.398 0.485739 116.333 0.330287 116.217 0.215671C116.101 0.101055 115.944 0.0366651 115.78 0.0366651H112.49C112.326 0.0366651 112.169 0.101055 112.053 0.215671C111.937 0.330287 111.872 0.485739 111.872 0.647831V4.47373C111.872 4.55399 111.856 4.63346 111.825 4.70761C111.794 4.78176 111.748 4.84914 111.691 4.90589C111.634 4.96264 111.566 5.00766 111.491 5.03837C111.416 5.06909 111.335 5.08489 111.254 5.08489H100.522C100.441 5.08489 100.361 5.06909 100.286 5.03837C100.211 5.00766 100.143 4.96264 100.085 4.90589C100.028 4.84914 99.9826 4.78176 99.9515 4.70761C99.9205 4.63346 99.9045 4.55399 99.9045 4.47373V0.647831C99.9045 0.485739 99.8395 0.330287 99.7236 0.215671C99.6078 0.101055 99.4507 0.0366651 99.2869 0.0366651H95.9788C95.8971 0.0356945 95.816 0.0507854 95.7402 0.0810645C95.6644 0.111344 95.5954 0.156209 95.5373 0.213058C95.4791 0.269907 95.433 0.337608 95.4015 0.412241C95.37 0.486873 95.3538 0.56695 95.3538 0.647831V17.2838C95.3534 17.3648 95.3694 17.4452 95.4008 17.5201C95.4321 17.595 95.4782 17.663 95.5364 17.7201C95.5946 17.7772 95.6636 17.8223 95.7396 17.8527C95.8156 17.8832 95.8969 17.8983 95.9788 17.8974ZM99.9317 10.2309C99.9314 10.1506 99.9471 10.0709 99.9781 9.99664C100.009 9.92235 100.054 9.85484 100.112 9.79803C100.169 9.74121 100.238 9.6962 100.313 9.6656C100.388 9.635 100.468 9.61942 100.549 9.61974H111.244C111.408 9.61974 111.565 9.68413 111.681 9.79875C111.797 9.91336 111.862 10.0688 111.862 10.2309V12.7856C111.862 12.9477 111.797 13.1031 111.681 13.2177C111.565 13.3324 111.408 13.3967 111.244 13.3967H100.542C100.461 13.3971 100.38 13.3815 100.305 13.3509C100.23 13.3203 100.162 13.2753 100.104 13.2185C100.047 13.1616 100.002 13.0941 99.9706 13.0198C99.9397 12.9455 99.924 12.8659 99.9243 12.7856L99.9317 10.2309Z" fill="#221E1F"/>
<path d="M11.7555 9.88379C11.1719 9.88331 10.6012 10.0541 10.1158 10.3747C9.63028 10.6952 9.25181 11.1511 9.02824 11.6846C8.80467 12.218 8.74604 12.8051 8.85978 13.3716C8.97353 13.938 9.25452 14.4583 9.66721 14.8667C10.0799 15.2751 10.6057 15.5531 11.1782 15.6657C11.7506 15.7782 12.3439 15.7202 12.8831 15.499C13.4222 15.2778 13.8828 14.9033 14.2068 14.4229C14.5307 13.9425 14.7034 13.3778 14.7029 12.8003C14.7029 12.0268 14.3924 11.285 13.8396 10.738C13.2869 10.1911 12.5372 9.88379 11.7555 9.88379Z" fill="#221E1F"/>
</mask>
<g mask="url(#mask0_226_2176)">
<ellipse cx="82" cy="14" rx="40" ry="39" fill="white"/>
<rect x="91" y="-3" width="41" height="39" fill="white"/>
<ellipse cx="25" cy="10.5" rx="29" ry="28.5" fill="white"/>
</g>
</svg>
