<svg width="120" height="33" viewBox="0 0 120 33" fill="none" xmlns="http://www.w3.org/2000/svg">
<mask id="mask0_95_528" style="mask-type:alpha" maskUnits="userSpaceOnUse" x="0" y="0" width="120" height="33">
<path d="M119.39 20.4985H37.1205C36.9567 20.4985 36.7996 20.4341 36.6838 20.3195C36.568 20.2049 36.5029 20.0494 36.5029 19.8873V0.647817C36.5029 0.485726 36.4378 0.330273 36.322 0.215657C36.2062 0.101042 36.0491 0.0366516 35.8853 0.0366516H32.5698C32.406 0.0366516 32.2489 0.101042 32.1331 0.215657C32.0172 0.330273 31.9521 0.485726 31.9521 0.647817V24.4197C31.9521 24.5818 32.0172 24.7373 32.1331 24.8519C32.2489 24.9665 32.406 25.0309 32.5698 25.0309H95.8479C96.0117 25.0309 96.1688 25.0953 96.2847 25.2099C96.4005 25.3245 96.4656 25.48 96.4656 25.642V27.2946C96.4656 27.2946 96.4656 28.8054 95.1932 29.6146C95.1198 29.6604 95.057 29.7211 95.0089 29.7927C94.9609 29.8642 94.9287 29.945 94.9144 30.0298C94.9002 30.1145 94.9043 30.2013 94.9263 30.2844C94.9484 30.3674 94.988 30.445 95.0425 30.5118C95.5786 31.167 96.426 32.2011 96.8979 32.7731C96.9942 32.8915 97.1318 32.9699 97.2836 32.9929C97.4353 33.016 97.5904 32.9821 97.7181 32.8978C98.7434 32.2133 101.066 30.3725 101.066 27.6907V25.6298C101.066 25.4677 101.131 25.3123 101.247 25.1977C101.362 25.083 101.52 25.0187 101.683 25.0187H110.597C110.761 25.0187 110.918 25.083 111.034 25.1977C111.15 25.3123 111.215 25.4677 111.215 25.6298V30.3774C111.215 30.5394 111.28 30.6949 111.396 30.8095C111.511 30.9241 111.669 30.9885 111.832 30.9885H115.118C115.282 30.9885 115.439 30.9241 115.555 30.8095C115.671 30.6949 115.736 30.5394 115.736 30.3774V25.6347C115.736 25.4726 115.801 25.3172 115.917 25.2026C116.033 25.0879 116.19 25.0235 116.353 25.0235H119.382C119.546 25.0235 119.703 24.9592 119.819 24.8445C119.935 24.7299 120 24.5745 120 24.4124V21.1096C120 20.9488 119.936 20.7945 119.822 20.6801C119.707 20.5656 119.552 20.5004 119.39 20.4985Z" fill="#221E1F"/>
<path d="M28.9775 0H25.4224C25.2913 0 25.1656 0.051512 25.073 0.143205C24.9803 0.234897 24.9283 0.359259 24.9283 0.488932V9.77865C24.9283 9.90832 24.8762 10.0327 24.7835 10.1244C24.6909 10.2161 24.5652 10.2676 24.4341 10.2676H23.6065C23.5211 10.2662 23.4376 10.243 23.3639 10.2001C23.2903 10.1573 23.2292 10.0963 23.1865 10.0231C23.5896 11.6745 23.6251 13.3929 23.2903 15.0591C23.3338 14.9845 23.3965 14.9226 23.472 14.8797C23.5475 14.8367 23.6331 14.8143 23.7202 14.8147H24.4144C24.5454 14.8147 24.6711 14.8662 24.7638 14.9579C24.8564 15.0495 24.9085 15.1739 24.9085 15.3036V24.5517C24.9085 24.6814 24.9606 24.8058 25.0532 24.8975C25.1459 24.9892 25.2716 25.0407 25.4026 25.0407H28.9775C29.1085 25.0407 29.2342 24.9892 29.3269 24.8975C29.4195 24.8058 29.4716 24.6814 29.4716 24.5517V0.488932C29.4716 0.359259 29.4195 0.234897 29.3269 0.143205C29.2342 0.051512 29.1085 0 28.9775 0Z" fill="#221E1F"/>
<path d="M23.1866 10.028C22.502 7.24234 20.8023 4.80475 18.4134 3.18269C16.0245 1.56063 13.1146 0.868284 10.2416 1.23841C7.3686 1.60853 4.7348 3.01507 2.84525 5.18832C0.955695 7.36156 -0.0566118 10.1485 0.00244568 13.0148C0.0615032 15.8811 1.18777 18.6249 3.16527 20.7202C5.14277 22.8154 7.83232 24.1145 10.7182 24.3685C13.604 24.6224 16.483 23.8133 18.8031 22.0962C21.1232 20.3791 22.7211 17.875 23.2904 15.064C23.6252 13.3978 23.5897 11.6794 23.1866 10.028ZM4.63774 12.2111C4.74659 10.8669 5.24193 9.58165 6.06524 8.50708C6.88856 7.4325 8.00546 6.61352 9.28403 6.14687C10.5626 5.68022 11.9494 5.5854 13.2807 5.87359C14.612 6.16178 15.8321 6.82096 16.797 7.77326C17.7619 8.72556 18.4311 9.93121 18.7258 11.2478C19.0205 12.5644 18.9282 13.9369 18.4599 15.2033C17.9916 16.4697 17.1668 17.577 16.083 18.3944C14.9991 19.2119 13.7015 19.7053 12.3434 19.8165C11.3125 19.8967 10.2764 19.7551 9.30602 19.4016C8.33569 19.048 7.45419 18.4908 6.72208 17.7682C5.98997 17.0457 5.42461 16.1748 5.06481 15.2156C4.70502 14.2563 4.55933 13.2314 4.63774 12.2111Z" fill="#221E1F"/>
<path d="M66.7226 17.8974H89.217C89.4324 17.8918 89.6446 17.8435 89.8408 17.7554C90.0371 17.6672 90.2135 17.541 90.3595 17.3841C90.5056 17.2273 90.6183 17.043 90.6911 16.8423C90.7639 16.6415 90.7953 16.4284 90.7833 16.2154V0.647822C90.7833 0.485731 90.7182 0.330278 90.6024 0.215662C90.4866 0.101047 90.3295 0.0366565 90.1656 0.0366565H86.8576C86.6938 0.0366565 86.5367 0.101047 86.4208 0.215662C86.305 0.330278 86.2399 0.485731 86.2399 0.647822V12.7416C86.2403 12.8219 86.2245 12.9015 86.1936 12.9758C86.1627 13.0501 86.1172 13.1176 86.0598 13.1744C86.0024 13.2313 85.9341 13.2763 85.8591 13.3069C85.784 13.3375 85.7035 13.3531 85.6223 13.3527H71.261C71.1798 13.3531 71.0994 13.3375 71.0243 13.3069C70.9492 13.2763 70.881 13.2313 70.8236 13.1744C70.7661 13.1176 70.7207 13.0501 70.6897 12.9758C70.6588 12.9015 70.6431 12.8219 70.6434 12.7416V11.7979C70.6434 11.6358 70.7084 11.4804 70.8243 11.3658C70.9401 11.2512 71.0972 11.1868 71.261 11.1868H80.2069C80.2881 11.1871 80.3685 11.1715 80.4436 11.1409C80.5187 11.1103 80.5869 11.0653 80.6443 11.0085C80.7018 10.9517 80.7472 10.8842 80.7782 10.8099C80.8091 10.7356 80.8248 10.6559 80.8245 10.5756V0.647822C80.8248 0.567472 80.8091 0.487852 80.7782 0.413556C80.7472 0.33926 80.7018 0.271759 80.6443 0.214942C80.5869 0.158126 80.5187 0.113119 80.4436 0.0825201C80.3685 0.0519207 80.2881 0.0363332 80.2069 0.0366565H66.7226C66.5588 0.0366565 66.4017 0.101047 66.2859 0.215662C66.1701 0.330278 66.105 0.485731 66.105 0.647822V3.92367C66.105 4.08576 66.1701 4.24121 66.2859 4.35583C66.4017 4.47045 66.5588 4.53484 66.7226 4.53484H75.6462C75.8101 4.53484 75.9671 4.59923 76.083 4.71384C76.1988 4.82846 76.2639 4.98391 76.2639 5.146V6.02608C76.2639 6.18817 76.1988 6.34362 76.083 6.45824C75.9671 6.57286 75.8101 6.63725 75.6462 6.63725H66.7226C66.5588 6.63725 66.4017 6.70164 66.2859 6.81625C66.1701 6.93087 66.105 7.08632 66.105 7.24841V17.2886C66.1056 17.4503 66.171 17.6051 66.2868 17.7192C66.4025 17.8333 66.5592 17.8974 66.7226 17.8974Z" fill="#221E1F"/>
<path d="M41.3872 17.9291H61.2306C61.3944 17.9291 61.5515 17.8647 61.6674 17.7501C61.7832 17.6355 61.8483 17.4801 61.8483 17.318V0.647817C61.8483 0.485726 61.7832 0.330273 61.6674 0.215657C61.5515 0.101042 61.3944 0.0366516 61.2306 0.0366516H57.9053C57.7415 0.0366516 57.5844 0.101042 57.4685 0.215657C57.3527 0.330273 57.2876 0.485726 57.2876 0.647817V4.47371C57.2876 4.55397 57.2717 4.63345 57.2406 4.7076C57.2096 4.78175 57.1641 4.84912 57.1067 4.90587C57.0494 4.96263 56.9813 5.00764 56.9064 5.03836C56.8314 5.06907 56.7511 5.08488 56.67 5.08488H45.9701C45.8889 5.08488 45.8086 5.06907 45.7337 5.03836C45.6588 5.00764 45.5907 4.96263 45.5333 4.90587C45.476 4.84912 45.4305 4.78175 45.3994 4.7076C45.3684 4.63345 45.3524 4.55397 45.3524 4.47371V0.647817C45.3524 0.485726 45.2873 0.330273 45.1715 0.215657C45.0557 0.101042 44.8986 0.0366516 44.7348 0.0366516H41.3872C41.2234 0.0366516 41.0663 0.101042 40.9505 0.215657C40.8346 0.330273 40.7696 0.485726 40.7696 0.647817V17.3131C40.7689 17.3938 40.7844 17.4738 40.8151 17.5485C40.8459 17.6232 40.8913 17.6911 40.9487 17.7484C41.0061 17.8057 41.0744 17.8511 41.1497 17.8822C41.2249 17.9132 41.3057 17.9291 41.3872 17.9291ZM45.3524 10.248C45.3524 10.0859 45.4175 9.93046 45.5333 9.81585C45.6492 9.70123 45.8062 9.63684 45.9701 9.63684H56.6502C56.814 9.63684 56.9711 9.70123 57.087 9.81585C57.2028 9.93046 57.2679 10.0859 57.2679 10.248V12.7856C57.2679 12.9477 57.2028 13.1031 57.087 13.2177C56.9711 13.3323 56.814 13.3967 56.6502 13.3967H45.9701C45.8062 13.3967 45.6492 13.3323 45.5333 13.2177C45.4175 13.1031 45.3524 12.9477 45.3524 12.7856V10.248Z" fill="#221E1F"/>
<path d="M95.9788 17.8973H115.78C115.944 17.8973 116.101 17.8329 116.217 17.7183C116.333 17.6037 116.398 17.4483 116.398 17.2862V0.6478C116.398 0.485709 116.333 0.330256 116.217 0.21564C116.101 0.101025 115.944 0.0366346 115.78 0.0366346H112.49C112.326 0.0366346 112.169 0.101025 112.053 0.21564C111.937 0.330256 111.872 0.485709 111.872 0.6478V4.4737C111.872 4.55396 111.856 4.63343 111.825 4.70758C111.794 4.78173 111.748 4.8491 111.691 4.90586C111.634 4.96261 111.566 5.00763 111.491 5.03834C111.416 5.06905 111.335 5.08486 111.254 5.08486H100.522C100.441 5.08486 100.361 5.06905 100.286 5.03834C100.211 5.00763 100.143 4.96261 100.085 4.90586C100.028 4.8491 99.9826 4.78173 99.9515 4.70758C99.9205 4.63343 99.9045 4.55396 99.9045 4.4737V0.6478C99.9045 0.485709 99.8395 0.330256 99.7236 0.21564C99.6078 0.101025 99.4507 0.0366346 99.2869 0.0366346H95.9788C95.8971 0.035664 95.816 0.0507549 95.7402 0.081034C95.6644 0.111313 95.5954 0.156178 95.5373 0.213027C95.4791 0.269876 95.433 0.337578 95.4015 0.41221C95.37 0.486842 95.3538 0.56692 95.3538 0.6478V17.2837C95.3534 17.3648 95.3694 17.4452 95.4008 17.5201C95.4321 17.595 95.4782 17.663 95.5364 17.7201C95.5946 17.7772 95.6636 17.8223 95.7396 17.8527C95.8156 17.8831 95.8969 17.8983 95.9788 17.8973ZM99.9317 10.2309C99.9314 10.1505 99.9471 10.0709 99.9781 9.99661C100.009 9.92232 100.054 9.85481 100.112 9.798C100.169 9.74118 100.238 9.69617 100.313 9.66557C100.388 9.63497 100.468 9.61939 100.549 9.61971H111.244C111.408 9.61971 111.565 9.6841 111.681 9.79872C111.797 9.91333 111.862 10.0688 111.862 10.2309V12.7855C111.862 12.9476 111.797 13.1031 111.681 13.2177C111.565 13.3323 111.408 13.3967 111.244 13.3967H100.542C100.461 13.397 100.38 13.3814 100.305 13.3508C100.23 13.3202 100.162 13.2752 100.104 13.2184C100.047 13.1616 100.002 13.0941 99.9706 13.0198C99.9397 12.9455 99.924 12.8659 99.9243 12.7855L99.9317 10.2309Z" fill="#221E1F"/>
<path d="M11.7555 9.88376C11.1719 9.88328 10.6012 10.0541 10.1158 10.3747C9.63028 10.6952 9.25181 11.1511 9.02824 11.6845C8.80467 12.218 8.74604 12.8051 8.85978 13.3715C8.97353 13.938 9.25452 14.4583 9.66721 14.8667C10.0799 15.275 10.6057 15.5531 11.1782 15.6656C11.7506 15.7782 12.3439 15.7202 12.8831 15.499C13.4222 15.2777 13.8828 14.9032 14.2068 14.4228C14.5307 13.9424 14.7034 13.3778 14.7029 12.8002C14.7029 12.0267 14.3924 11.2849 13.8396 10.738C13.2869 10.191 12.5372 9.88376 11.7555 9.88376Z" fill="#221E1F"/>
</mask>
<g mask="url(#mask0_95_528)">
<ellipse cx="82" cy="14" rx="40" ry="39" fill="#3772FF"/>
<rect x="91" y="-3" width="41" height="39" fill="#FF6142"/>
<ellipse cx="25" cy="10.5" rx="29" ry="28.5" fill="#084AEA"/>
</g>
</svg>
