<svg width="60" height="60" viewBox="0 0 60 60" fill="none" xmlns="http://www.w3.org/2000/svg">
<path d="M30 5C25.1512 5.00921 20.4097 6.42828 16.3531 9.08435C12.2964 11.7404 9.09974 15.5189 7.15235 19.9594C5.20497 24.4 4.59094 29.311 5.38507 34.0944C6.17919 38.8777 8.34719 43.3269 11.625 46.9V46.9C13.9661 49.4376 16.8074 51.4628 19.9698 52.848C23.1323 54.2332 26.5475 54.9483 30 54.9483C33.4525 54.9483 36.8677 54.2332 40.0302 52.848C43.1926 51.4628 46.0339 49.4376 48.375 46.9V46.9C51.6528 43.3269 53.8208 38.8777 54.6149 34.0944C55.4091 29.311 54.795 24.4 52.8476 19.9594C50.9003 15.5189 47.7036 11.7404 43.6469 9.08435C39.5903 6.42828 34.8488 5.00921 30 5V5ZM30 50C24.8212 49.9921 19.8473 47.9757 16.125 44.375C17.2551 41.6238 19.1776 39.2707 21.6481 37.6147C24.1187 35.9587 27.0258 35.0745 30 35.0745C32.9742 35.0745 35.8813 35.9587 38.3519 37.6147C40.8224 39.2707 42.7449 41.6238 43.875 44.375C40.1527 47.9757 35.1788 49.9921 30 50ZM25 25C25 24.0111 25.2932 23.0444 25.8427 22.2221C26.3921 21.3999 27.173 20.759 28.0866 20.3806C29.0002 20.0022 30.0055 19.9031 30.9755 20.0961C31.9454 20.289 32.8363 20.7652 33.5355 21.4645C34.2348 22.1637 34.711 23.0546 34.9039 24.0245C35.0969 24.9945 34.9978 25.9998 34.6194 26.9134C34.241 27.827 33.6001 28.6079 32.7779 29.1573C31.9556 29.7068 30.9889 30 30 30C28.6739 30 27.4021 29.4732 26.4645 28.5355C25.5268 27.5979 25 26.3261 25 25ZM47.275 40C45.0413 36.1794 41.6035 33.2076 37.5 31.55C38.7729 30.1066 39.6023 28.3266 39.8887 26.4236C40.175 24.5205 39.9062 22.5753 39.1144 20.8212C38.3226 19.0672 37.0415 17.5789 35.4248 16.5349C33.8081 15.4909 31.9245 14.9356 30 14.9356C28.0755 14.9356 26.1919 15.4909 24.5752 16.5349C22.9585 17.5789 21.6774 19.0672 20.8856 20.8212C20.0938 22.5753 19.825 24.5205 20.1113 26.4236C20.3977 28.3266 21.2271 30.1066 22.5 31.55C18.3965 33.2076 14.9587 36.1794 12.725 40C10.9449 36.9678 10.0043 33.5162 10 30C10 24.6957 12.1071 19.6086 15.8579 15.8579C19.6086 12.1071 24.6957 10 30 10C35.3043 10 40.3914 12.1071 44.1421 15.8579C47.8929 19.6086 50 24.6957 50 30C49.9957 33.5162 49.0551 36.9678 47.275 40V40Z" fill="#828282"/>
</svg>
